HIERARCHY
ROOT Hips
{
	OFFSET -3.958830 18.904000 13.208200
	CHANNELS 6 Xposition Yposition Zposition Zrotation Yrotation Xrotation 
	JOINT LHipJoint
	{
		OFFSET 0.000000 0.000000 0.000000
		CHANNELS 3 Zrotation Yrotation Xrotation
		JOINT LeftUpLeg
		{
			OFFSET 1.800000 -1.400000 0.085000
			CHANNELS 3 Zrotation Yrotation Xrotation
			JOINT LeftLeg
			{
				OFFSET 2.215000 -6.000000 0.000000
				CHANNELS 3 Zrotation Yrotation Xrotation
				JOINT LeftFoot
				{
					OFFSET 2.500000 -6.900000 0.000000
					CHANNELS 3 Zrotation Yrotation Xrotation
					JOINT LeftToeBase
					{
						OFFSET 0.200000 -0.500000 1.950000
						CHANNELS 3 Zrotation Yrotation Xrotation
						End Site
						{
							OFFSET 0.000000 0.000000 0.000000
						}
					}
				}
			}
		}
	}
	JOINT RHipJoint
	{
		OFFSET 0.000000 0.000000 0.000000
		CHANNELS 3 Zrotation Yrotation Xrotation
		JOINT RightUpLeg
		{
			OFFSET -1.800000 -1.400000 0.085000
			CHANNELS 3 Zrotation Yrotation Xrotation
			JOINT RightLeg
			{
				OFFSET -2.215000 -6.000000 0.000000
				CHANNELS 3 Zrotation Yrotation Xrotation
				JOINT RightFoot
				{
					OFFSET -2.500000 -6.900000 0.000000
					CHANNELS 3 Zrotation Yrotation Xrotation
					JOINT RightToeBase
					{
						OFFSET -0.200000 -0.500000 1.950000
						CHANNELS 3 Zrotation Yrotation Xrotation
						End Site
						{
							OFFSET 0.000000 0.000000 0.000000
						}
					}
				}
			}
		}
	}
	JOINT LowerBack
	{
		OFFSET 0.000000 0.000000 0.000000
		CHANNELS 3 Zrotation Yrotation Xrotation
		JOINT Spine
		{
			OFFSET -0.087000 1.940000 -0.288900
			CHANNELS 3 Zrotation Yrotation Xrotation
			JOINT Spine1
			{
				OFFSET 0.000000 1.950000 0.060000
				CHANNELS 3 Zrotation Yrotation Xrotation
				JOINT Neck
				{
					OFFSET 0.000000 0.000000 0.000000
					CHANNELS 3 Zrotation Yrotation Xrotation
					JOINT Neck1
					{
						OFFSET 0.000000 1.600000 0.340000
						CHANNELS 3 Zrotation Yrotation Xrotation
						JOINT Head
						{
							OFFSET 0.000000 1.667000 -0.240000
							CHANNELS 3 Zrotation Yrotation Xrotation
							End Site
							{
								OFFSET 0.000000 0.000000 0.000000
							}
						}
					}
				}
				JOINT LeftShoulder
				{
					OFFSET 0.000000 0.000000 0.000000
					CHANNELS 3 Zrotation Yrotation Xrotation
					JOINT LeftArm
					{
						OFFSET 2.700000 1.550000 -0.730000
						CHANNELS 3 Zrotation Yrotation Xrotation
						JOINT LeftForeArm
						{
							OFFSET 5.450000 0.000000 0.000000
							CHANNELS 3 Zrotation Yrotation Xrotation
							JOINT LeftHand
							{
								OFFSET 3.450000 0.000000 0.000000
								CHANNELS 3 Zrotation Yrotation Xrotation
								JOINT LeftHandIndex1
								{
									OFFSET 0.750000 0.000000 0.000000
									CHANNELS 3 Zrotation Yrotation Xrotation
									End Site
									{
										OFFSET 0.000000 0.000000 0.000000
									}
								}
							}
						}
					}
				}
				JOINT RightShoulder
				{
					OFFSET 0.000000 0.000000 0.000000
					CHANNELS 3 Zrotation Yrotation Xrotation
					JOINT RightArm
					{
						OFFSET -2.700000 1.550000 -0.730000
						CHANNELS 3 Zrotation Yrotation Xrotation
						JOINT RightForeArm
						{
							OFFSET -5.450000 0.000000 0.000000
							CHANNELS 3 Zrotation Yrotation Xrotation
							JOINT RightHand
							{
								OFFSET -3.450000 0.000000 0.000000
								CHANNELS 3 Zrotation Yrotation Xrotation
								JOINT RightHandIndex1
								{
									OFFSET -0.750000 0.000000 0.000000
									CHANNELS 3 Zrotation Yrotation Xrotation
									End Site
									{
										OFFSET 0.000000 0.000000 0.000000
									}
								}
							}
						}
					}
				}
			}
		}
	}
}
MOTION
Frames: 14
Frame Time: 0.016667
3.584760 16.198840 -0.783930 -3.037909 12.943339 -2.227742 -15.284479 13.491266 2.711088 2.497263 -3.210830 -17.864619 -1.974201 5.788515 24.580888 -0.520686 4.932723 3.119777 -0.091110 -0.390880 -0.219660 18.163141 -9.915885 3.683734 -5.943929 3.783815 -34.439524 4.486647 -2.011314 2.109192 0.409281 -1.845814 3.821009 -0.031680 0.869330 0.178160 -3.502150 -2.769250 -7.727907 7.164754 -4.933927 13.909109 -3.113670 -3.484701 2.432120 1.641227 -3.483438 -8.193069 -6.912393 1.664829 25.643307 -1.606220 -1.259670 2.532390 -15.618985 -3.589691 1.650648 -41.831633 -12.769114 -0.317237 -19.248166 -62.806153 9.245695 -4.067181 3.286431 0.156580 0.523840 -0.514650 0.199610 12.561210 5.605277 5.078588 36.384307 0.600836 -9.079740 13.397141 64.292476 6.068535 1.740068 -1.836609 -0.439250 0.365650 0.313170 -0.028140 
3.534930 16.213660 -0.770570 -3.192410 13.177694 -1.744262 -15.308249 13.450867 2.703883 3.283266 -3.356205 -18.487034 -2.384318 5.931013 24.295893 -0.532836 4.949614 3.109822 -0.100760 -0.392380 -0.224140 18.149173 -9.868608 3.682712 -7.589471 3.535739 -35.220863 4.240550 -2.036249 2.167237 0.415351 -1.914702 3.785291 -0.023450 0.889230 0.191620 -3.439928 -2.783234 -7.698930 6.150955 -4.857696 13.201660 -2.116146 -3.700607 2.910452 1.231487 -2.810661 -8.292468 -5.684865 1.673939 25.195169 -2.028380 -0.565730 3.012720 -14.023888 -3.803485 2.103929 -41.548105 -12.523677 -0.108052 -22.446330 -63.797167 11.260866 -4.106706 3.337267 0.125770 0.559840 -0.531420 0.194570 11.879868 5.319143 4.774544 37.408805 1.635393 -8.824083 12.437185 63.031523 5.430945 1.725267 -1.836811 -0.439260 0.357480 0.320060 -0.028470 
3.485830 16.236950 -0.752090 -3.405703 13.871444 -1.123036 -15.330054 13.438122 2.717472 4.001249 -3.448608 -19.025135 -2.795113 5.933349 23.177881 -0.567757 4.857256 3.139377 -0.109040 -0.396460 -0.218200 18.130815 -9.894269 3.609851 -9.359772 3.129359 -35.939894 3.636767 -2.271648 3.968905 0.425562 -2.003604 3.741013 -0.014880 0.905290 0.210370 -3.383873 -2.782541 -7.625976 5.160300 -4.952533 12.294887 -1.087325 -4.116916 3.199912 0.848025 -1.972082 -8.265308 -4.182170 1.631630 24.710681 -2.668680 0.320800 3.436410 -12.274303 -3.581772 2.494677 -41.381389 -12.221856 0.385203 -26.739177 -65.191989 14.221977 -4.159130 3.395473 0.093420 0.602580 -0.547740 0.183850 10.985367 4.433056 4.224155 39.087287 3.051473 -8.429779 9.927059 61.377362 4.108232 1.700699 -1.824176 -0.438110 0.345500 0.327310 -0.036480 
3.440500 16.271270 -0.731650 -3.789389 14.299511 -0.526750 -15.331993 13.404437 2.725117 5.002802 -3.481129 -19.411669 -3.515402 5.992426 21.747630 -0.608720 4.778841 3.169842 -0.134110 -0.413520 -0.247310 18.130914 -9.929477 3.538162 -11.228600 2.729776 -36.182740 3.777199 -2.624611 5.747207 0.428846 -2.171213 3.671261 -0.011150 0.942180 0.221140 -3.379116 -2.732899 -7.555787 4.765484 -5.000774 11.326141 -0.421738 -4.396668 3.306425 0.482896 -1.338261 -8.205760 -3.037730 1.704483 24.229698 -2.896170 0.925070 3.990490 -10.948840 -3.240228 2.761700 -40.968206 -11.846145 0.900528 -30.926944 -66.463147 17.293554 -4.210648 3.446384 0.068040 0.645500 -0.575600 0.180950 10.432242 3.533337 3.752776 40.623591 3.981138 -8.076520 7.583855 59.579885 2.941483 1.676250 -1.805895 -0.450470 0.345690 0.349560 -0.034990 
3.385020 16.318270 -0.714330 -4.073213 14.381845 -0.210124 -15.351140 13.401994 2.743272 6.037061 -3.447316 -19.447320 -4.309622 6.034232 20.105846 -0.640406 4.686939 3.200367 -0.126010 -0.403590 -0.227400 18.104303 -9.964835 3.457380 -13.003871 2.305808 -35.679703 4.149003 -2.957714 6.939106 0.400983 -2.325585 3.603479 -0.004710 0.936350 0.224200 -3.304939 -2.745435 -7.515156 3.671985 -4.799194 10.778478 1.051343 -4.473737 3.578281 -0.017169 -0.719644 -8.312813 -2.040648 1.624868 24.445640 -3.026970 1.391960 3.620040 -9.404769 -3.212733 3.226877 -41.284881 -11.390747 1.123767 -34.725495 -67.290430 19.922553 -4.212573 3.467061 0.080660 0.648290 -0.563420 0.176400 9.985681 3.128000 3.361745 41.891051 5.065313 -7.857438 5.162524 57.196429 1.757834 1.673316 -1.750478 -0.454370 0.352610 0.345190 -0.045300 
3.333440 16.358070 -0.696350 -4.817474 14.133582 0.282546 -15.341430 13.329554 2.765226 7.464836 -3.458186 -19.856689 -5.224612 6.153561 18.786200 -0.645761 4.649387 3.205607 -0.108050 -0.374140 -0.200920 18.114223 -10.010203 3.384361 -14.120652 2.122096 -35.109363 4.382694 -3.177006 7.720376 0.381680 -2.446413 3.554268 0.011790 0.927550 0.229330 -3.319605 -2.611902 -7.469444 3.566674 -4.544759 9.957011 2.000412 -4.405869 3.678191 -0.368100 -0.044089 -8.269184 -0.854607 1.512371 24.307146 -3.233530 2.025200 3.459880 -7.676160 -2.648098 3.474306 -41.790842 -11.279862 1.754623 -39.057050 -67.929172 23.101680 -4.221343 3.510943 0.067220 0.659490 -0.553850 0.175430 8.989257 2.098912 2.849096 44.049074 6.259933 -7.396386 2.106022 54.143733 0.383202 1.680338 -1.712257 -0.444760 0.348780 0.326910 -0.049610 
3.281360 16.392360 -0.681370 -5.671516 13.823767 1.009018 -15.326219 13.222073 2.798000 8.834648 -3.528285 -20.633820 -5.955695 6.234026 17.745465 -0.661634 4.641854 3.199220 -0.105050 -0.361690 -0.209210 18.140121 -10.028275 3.312300 -14.924540 2.055981 -34.446064 4.642263 -3.314734 8.015077 0.376627 -2.561165 3.508915 0.026220 0.945250 0.235220 -3.362148 -2.471045 -7.406119 3.723322 -4.250499 8.760220 2.817149 -4.295941 4.054806 -0.822911 0.457208 -8.317247 0.065275 1.586199 23.857139 -3.049470 2.439280 3.691190 -5.548991 -2.154095 3.846977 -42.800516 -11.263856 2.406764 -43.522347 -68.818749 26.451947 -4.236595 3.582555 0.045080 0.682200 -0.570060 0.178290 7.773828 1.178207 2.420150 46.521105 7.227944 -7.018146 -1.113989 51.038331 -0.978583 1.679888 -1.691590 -0.444260 0.345180 0.330240 -0.046500 
3.224660 16.417910 -0.664720 -6.512117 13.257263 1.903453 -15.316755 13.084268 2.834667 10.173980 -3.627345 -21.656641 -6.575659 6.376902 17.231071 -0.658124 4.702844 3.179271 -0.111330 -0.366680 -0.227460 18.167493 -10.016080 3.258210 -15.533966 2.096252 -33.588825 5.219942 -3.366802 7.605544 0.384018 -2.676784 3.471599 0.037950 0.982170 0.244080 -3.392880 -2.311665 -7.333751 3.672663 -3.733258 7.289825 3.863775 -3.995195 4.483913 -1.315804 0.942170 -8.322063 0.966926 1.423119 23.315922 -2.856080 2.559660 4.586340 -3.406494 -1.521262 4.173488 -44.069222 -11.448199 3.261628 -48.069283 -69.573580 29.948730 -4.259240 3.668095 0.005080 0.718870 -0.602420 0.191010 6.629930 0.181108 1.997697 48.468289 7.894394 -6.477947 -3.305578 47.860775 -1.799523 1.694048 -1.698998 -0.448970 0.339690 0.330920 -0.035980 
3.162610 16.434780 -0.645690 -7.526436 12.170594 2.731494 -15.301427 12.954756 2.864085 11.775693 -3.566734 -22.479939 -7.088884 6.525629 16.648588 -0.645014 4.781157 3.155364 -0.126540 -0.367700 -0.273670 18.199669 -10.019102 3.193756 -15.348757 2.333241 -32.616277 5.467687 -3.282724 7.025629 0.405258 -2.739796 3.466988 0.049230 1.038390 0.250850 -3.434774 -2.122820 -7.245776 3.712816 -3.032015 5.802382 4.883635 -3.495103 4.938188 -1.784361 1.268022 -8.290567 1.637551 1.323966 22.605588 -2.539270 2.509410 5.580450 -1.415205 -0.697021 4.463306 -45.378164 -11.495136 4.252937 -53.654330 -70.545308 34.439648 -4.290321 3.767919 -0.050940 0.765420 -0.647830 0.209360 5.586364 -0.840341 1.597366 49.880696 8.296305 -5.914848 -4.258324 45.415890 -2.120376 1.705668 -1.726760 -0.449970 0.339250 0.340740 -0.010510 
3.087380 16.446460 -0.638040 -8.426207 10.936306 3.375165 -15.296649 12.876239 2.890121 13.171148 -3.422462 -22.943349 -7.219121 6.497572 15.755859 -0.633631 4.769982 3.152131 -0.124540 -0.344910 -0.287790 18.209793 -10.028990 3.143315 -14.979040 2.550093 -31.493740 5.850959 -3.205703 6.419954 0.405872 -2.771867 3.462275 0.064630 1.052540 0.252630 -3.432921 -1.998332 -7.193698 3.195148 -2.252027 4.938136 6.384533 -2.904270 5.205217 -2.348708 1.529788 -8.328820 2.150053 1.033431 22.274317 -2.404300 2.445890 5.757820 0.990930 0.187279 4.744786 -47.062405 -11.726896 5.279861 -58.308253 -71.032630 38.105028 -4.272402 3.861337 -0.084500 0.780540 -0.655830 0.217050 4.346043 -1.790714 1.290004 51.334699 8.610710 -5.511785 -4.926897 43.789586 -2.331540 1.725982 -1.740013 -0.439400 0.339710 0.336260 0.007140 
3.003140 16.455750 -0.635130 -9.236777 9.473248 3.959373 -15.301209 12.832686 2.911668 14.480324 -3.211705 -22.993001 -7.191036 6.367077 14.435804 -0.615858 4.761684 3.171771 -0.185840 -0.407960 -0.338600 18.204433 -10.051872 3.088535 -14.288813 2.770970 -30.377001 6.003844 -3.130831 5.986977 0.437399 -2.794641 3.478223 0.036700 1.106820 0.252460 -3.393799 -1.909002 -7.149741 2.160909 -1.377121 4.228815 8.369292 -2.223147 5.410078 -2.963553 1.798722 -8.546465 2.654728 0.701715 22.151669 -2.426800 2.357480 6.942220 3.211429 0.669609 5.159351 -48.975325 -11.725096 6.071192 -62.082419 -71.160124 40.896377 -4.271080 3.943018 -0.124580 0.818780 -0.695030 0.214710 3.407508 -2.310567 1.196352 51.859401 8.550937 -5.268552 -4.284245 42.831859 -2.078880 1.747840 -1.740133 -0.455440 0.347370 0.365790 0.025130 
2.911300 16.459910 -0.642000 -9.712530 7.840954 4.482102 -15.314326 12.841991 2.914765 15.225026 -3.024448 -22.614435 -6.731691 6.029164 12.898680 -0.643511 4.674441 3.211965 -0.217800 -0.456770 -0.350650 18.178506 -10.092744 3.059109 -13.609298 2.929602 -29.427489 6.076440 -3.079151 5.699827 0.448353 -2.795948 3.482282 0.018400 1.127080 0.252460 -3.313397 -1.857924 -7.134261 0.453941 -0.366390 4.148988 10.728172 -1.314512 5.027111 -3.626469 2.119630 -8.709473 3.238899 0.403767 22.171083 -2.407630 2.335350 7.276850 5.658561 1.441721 5.336791 -51.381645 -12.110101 7.152751 -64.144805 -70.270522 41.943552 -4.199784 4.054714 -0.116210 0.828370 -0.711380 0.201130 2.372552 -3.074959 1.159787 52.335864 8.180390 -5.131848 -3.073704 42.985190 -1.584182 1.748655 -1.737612 -0.478270 0.354740 0.391930 0.017400 
2.813490 16.468900 -0.649730 -10.265105 6.373434 4.753512 -15.349082 12.923193 2.904003 15.946748 -2.822703 -21.913564 -5.969922 5.614615 11.393927 -0.692581 4.584406 3.233866 -0.160290 -0.431340 -0.290670 18.134986 -10.098081 2.982830 -12.600149 3.019254 -27.935425 5.953806 -3.003760 5.382058 0.408327 -2.757872 3.489696 0.031930 1.089340 0.270600 -3.178780 -2.025402 -7.082416 -1.041167 0.438001 3.922478 12.956162 -0.694187 5.309199 -4.174542 1.941518 -8.566238 2.829261 0.601142 22.631397 -2.005210 2.142730 5.915310 5.348962 1.449675 5.381738 -50.207022 -11.792450 7.196442 -66.338504 -69.889300 43.308807 -4.157736 4.056034 -0.046720 0.788550 -0.672250 0.200910 3.935004 -2.699402 1.055338 48.784677 7.419222 -5.195311 -0.613581 43.321191 -0.498910 1.735573 -1.713841 -0.476150 0.358500 0.381200 -0.010040 
2.720220 16.468110 -0.664870 -10.719930 5.252172 4.779041 -15.380803 13.041060 2.888896 16.252190 -2.645090 -21.081238 -4.758612 5.084263 9.824682 -0.728831 4.416128 3.272167 -0.149130 -0.427380 -0.266590 18.082270 -10.141053 2.913281 -11.802290 2.959919 -26.294001 5.901104 -3.031543 5.372787 0.375742 -2.742915 3.486074 0.025840 1.038820 0.266080 -3.041561 -2.195627 -7.067690 -2.396600 1.091751 4.203240 14.964866 -0.174362 5.505234 -4.560384 1.748961 -8.739534 2.377680 1.146179 23.475733 -1.535280 2.467080 4.696930 5.618706 1.224521 5.665540 -49.978283 -11.333353 7.007291 -67.578810 -69.887868 44.072622 -4.099400 4.052325 0.017050 0.738530 -0.629240 0.177830 4.579316 -2.152820 1.222040 46.244056 6.725657 -5.394054 1.677640 44.069669 0.490897 1.738666 -1.676446 -0.477630 0.357760 0.390150 -0.032850 
